<?xml version="1.0" encoding="UTF-8"?>
<svg version="1.1" xmlns="http://www.w3.org/2000/svg" width="2048" height="2048">
<path d="M0 0 C675.84 0 1351.68 0 2048 0 C2048 675.84 2048 1351.68 2048 2048 C1372.16 2048 696.32 2048 0 2048 C0 1372.16 0 696.32 0 0 Z M1008 600 C1008 625.08 1008 650.16 1008 676 C1000.77907471 675.98428955 993.55814941 675.9685791 986.1184082 675.95239258 C962.94037131 675.90411053 939.76233538 675.87081618 916.58426251 675.84680401 C912.97617813 675.84305247 909.36809391 675.83916945 905.76000977 675.83520508 C905.04178951 675.83441815 904.32356925 675.83363122 903.58358475 675.83282044 C891.99679917 675.81981256 880.41005884 675.79618456 868.82329998 675.76854161 C856.90948066 675.74035818 844.99568482 675.7237966 833.08183354 675.71773452 C826.40042347 675.7140091 819.71912762 675.70476681 813.03774452 675.68280983 C806.7332623 675.66226172 800.42892316 675.65620281 794.12441063 675.66067696 C791.82565403 675.65985988 789.52689204 675.65400453 787.22816467 675.64238358 C740.37531592 675.41738799 695.56605431 689.12409759 661.47119141 722.56396484 C659.91902556 724.07903944 658.34158464 725.56464814 656.76171875 727.05078125 C630.75851412 751.8492485 616.13437541 785.58205389 609.05419922 820.27856445 C608.81588379 821.44605225 608.57756836 822.61354004 608.33203125 823.81640625 C608.12296143 824.86256104 607.9138916 825.90871582 607.69848633 826.98657227 C607 830 607 830 605.93115234 832.90087891 C604.82785486 836.57294452 604.72988597 839.97505808 604.76953125 843.76953125 C604.76998947 844.49113937 604.77044769 845.2127475 604.7709198 845.95622253 C604.77392359 847.46977397 604.78175324 848.98332284 604.79418945 850.49682617 C604.81258195 852.82286396 604.81469795 855.14850605 604.81445312 857.47460938 C604.81936393 858.94792013 604.82519033 860.42122819 604.83203125 861.89453125 C604.83314407 862.59238235 604.8342569 863.29023346 604.83540344 864.00923157 C604.58904456 867.28642271 604.58904456 867.28642271 606 870 C606.5046686 873.42257068 606.90175301 876.85313023 607.3046875 880.2890625 C608.04076469 884.21756437 609.39130479 887.35199924 611 891 C611.67488991 893.4869959 612.29816037 895.98845047 612.875 898.5 C620.6903101 930.83701691 637.06199524 957.25682749 660 981 C660.80703369 981.8496936 660.80703369 981.8496936 661.63037109 982.71655273 C665.85078455 987.07076662 670.35829768 990.73954952 675.25 994.3125 C675.95640625 994.83650391 676.6628125 995.36050781 677.390625 995.90039062 C683.43348793 1000.71279812 683.43348793 1000.71279812 690.75762463 1002.24609566 C691.74243193 1002.25007775 692.72723923 1002.25405985 693.74188918 1002.25816262 C695.3688161 1002.24942409 695.3688161 1002.24942409 697.02861023 1002.24050903 C698.17865172 1002.24221788 699.32869321 1002.24392673 700.51358443 1002.24568737 C703.71070869 1002.24841748 706.9076718 1002.2421463 710.10477698 1002.23213124 C713.55056422 1002.22351057 716.99634368 1002.22641592 720.44213867 1002.22793579 C726.41385882 1002.22898552 732.38553532 1002.22269975 738.35724449 1002.21146011 C746.99137326 1002.19521997 755.62548088 1002.18999863 764.25962327 1002.18748413 C778.26725105 1002.18310469 792.27485556 1002.16978884 806.2824707 1002.15087891 C819.89119348 1002.13252654 833.49990993 1002.11836689 847.10864258 1002.10986328 C847.94720017 1002.10933783 848.78575775 1002.10881239 849.64972617 1002.10827102 C853.85643825 1002.10566098 858.06315038 1002.10313356 862.26986253 1002.10064721 C897.17992494 1002.07990696 932.08996033 1002.04467466 967 1002 C965.6906854 999.3813708 964.49618217 999.11348558 961.85546875 997.890625 C960.52092651 997.26450317 960.52092651 997.26450317 959.15942383 996.62573242 C957.68832153 995.94474487 957.68832153 995.94474487 956.1875 995.25 C947.1707405 991.00802935 938.21801629 986.6583842 929.3125 982.1875 C928.14396484 981.60154053 926.97542969 981.01558105 925.77148438 980.41186523 C921.579035 978.30850809 917.38858879 976.20117164 913.19812012 974.09387207 C894.59430204 964.73962363 875.91969455 955.5677091 857.05723572 946.74554443 C847.41778317 942.23665763 837.90359803 937.50065444 828.41259766 932.68798828 C816.63413731 926.7187668 804.79973166 920.9147954 792.8125 915.375 C791.05184204 914.56035278 791.05184204 914.56035278 789.25561523 913.72924805 C784.79493494 911.66805898 780.33356276 909.60865598 775.86328125 907.56835938 C773.00824142 906.26399804 770.15993692 904.94585644 767.3125 903.625 C766.49434814 903.25681152 765.67619629 902.88862305 764.83325195 902.50927734 C750.97092668 896.03490033 740.51525292 885.33263178 735 871 C730.8082213 856.66899945 731.15298359 840.36468267 738 827 C744.06333956 816.24246208 752.58889432 808.68054891 764 804 C764.83943964 803.65495737 765.67887928 803.30991474 766.54375648 802.95441628 C771.01813679 801.718849 775.13688614 801.71168904 779.75692749 801.7215271 C781.22244551 801.7128385 781.22244551 801.7128385 782.71756995 801.70397437 C785.98801638 801.68698292 789.25832161 801.68409856 792.52880859 801.68115234 C794.87449489 801.67185359 797.22017788 801.661685 799.56585693 801.65071106 C805.93306014 801.62339112 812.30024119 801.60825567 818.66748762 801.59528303 C824.64775177 801.58124398 830.62797777 801.55810815 836.60821219 801.53501268 C848.45119183 801.48957155 860.29418161 801.45294568 872.13720703 801.421875 C883.6398293 801.39167848 895.14242679 801.35732315 906.64501953 801.31738281 C907.35434814 801.31492126 908.06367674 801.31245972 908.79450016 801.30992357 C912.35308555 801.29754876 915.91167065 801.28509227 919.47025561 801.27259517 C948.98013752 801.16906749 978.49004745 801.08147712 1008 801 C1008 827.4 1008 853.8 1008 881 C1011.25245623 879.37377189 1013.96836676 877.72475797 1016.9296875 875.65625 C1017.88270752 874.99214111 1018.83572754 874.32803223 1019.81762695 873.64379883 C1020.82656006 872.93634521 1021.83549316 872.2288916 1022.875 871.5 C1023.91422607 870.77385498 1024.95345215 870.04770996 1026.02416992 869.29956055 C1035.15207044 862.91322797 1044.22465209 856.45590953 1053.25 849.92578125 C1054.77080307 848.825479 1056.29163697 847.72521937 1057.8125 846.625 C1058.57054932 846.07650391 1059.32859863 845.52800781 1060.10961914 844.96289062 C1065.29997757 841.21292138 1070.51497718 837.49982355 1075.75 833.8125 C1076.45632568 833.31492187 1077.16265137 832.81734375 1077.89038086 832.3046875 C1078.58397705 831.81613281 1079.27757324 831.32757812 1079.9921875 830.82421875 C1089.97759301 823.79066846 1099.86873181 816.64334836 1109.69091797 809.38330078 C1115.10236301 805.3870074 1120.53996365 801.42959434 1126 797.5 C1134.57782165 791.32351799 1143.0902947 785.06091972 1151.59130859 778.77929688 C1155.64184966 775.78716802 1159.69592712 772.79984086 1163.75 769.8125 C1164.53890625 769.23097168 1165.3278125 768.64944336 1166.140625 768.05029297 C1171.06644384 764.42047264 1175.9999282 760.80130886 1180.9375 757.1875 C1187.32931997 752.50778991 1193.67331289 747.76736234 1200 743 C1200.76957031 742.46375 1201.53914063 741.9275 1202.33203125 741.375 C1202.88246094 740.92125 1203.43289063 740.4675 1204 740 C1204 739.34 1204 738.68 1204 738 C1202.60296978 736.71543565 1202.60296978 736.71543565 1200.73046875 735.453125 C1200.01624756 734.94515381 1199.30202637 734.43718262 1198.56616211 733.91381836 C1197.78120361 733.3647583 1196.99624512 732.81569824 1196.1875 732.25 C1194.52534827 731.06998652 1192.86391253 729.88896398 1191.203125 728.70703125 C1190.34138672 728.09553223 1189.47964844 727.4840332 1188.59179688 726.85400391 C1184.5044706 723.93019496 1180.47297523 720.93223425 1176.4375 717.9375 C1167.71761137 711.49028224 1158.88816813 705.21245114 1150 699 C1148.32811529 697.83074306 1146.65624066 696.66147169 1144.984375 695.4921875 C1144.13270752 694.89656006 1143.28104004 694.30093262 1142.40356445 693.68725586 C1141.12098755 692.79018921 1141.12098755 692.79018921 1139.8125 691.875 C1138.96196045 691.28017822 1138.1114209 690.68535645 1137.23510742 690.07250977 C1128.70772402 684.10425005 1120.22536094 678.07648994 1111.80859375 671.953125 C1103.26273409 665.74247664 1094.64407744 659.67151917 1085.90234375 653.73950195 C1080.33765145 649.95044613 1074.89031136 646.0303994 1069.48486328 642.01855469 C1065.1172053 638.78819783 1060.67726286 635.68297291 1056.1875 632.625 C1048.06135526 627.08775078 1040.10246142 621.33131606 1032.14550781 615.5546875 C1028.85537081 613.17057366 1025.5546942 610.80137985 1022.25 608.4375 C1021.18265625 607.67308594 1020.1153125 606.90867187 1019.015625 606.12109375 C1013.93255571 601.91200641 1013.93255571 601.91200641 1008 600 Z M1344 1042 C1344 1042.66 1344 1043.32 1344 1044 C1343.23364731 1043.92894547 1342.46729462 1043.85789093 1341.67771912 1043.78468323 C1328.37133053 1042.71730272 1315.06326489 1042.87428179 1301.72265625 1042.90234375 C1299.09850593 1042.90421205 1296.47435526 1042.90563401 1293.85020447 1042.90663147 C1287.68831702 1042.90971645 1281.5264477 1042.91789088 1275.36456817 1042.92798096 C1268.33896355 1042.93923106 1261.31335797 1042.94467477 1254.28774655 1042.94967639 C1239.85848842 1042.96007648 1225.42924447 1042.97761993 1211 1043 C1210.5324706 1046.91836951 1210.5324706 1046.91836951 1212.65625 1048.68359375 C1213.4296875 1049.44800781 1214.203125 1050.21242188 1215 1051 C1216.96936032 1053.93955989 1218.72182378 1057.00451403 1220.5 1060.0625 C1221.57109655 1061.87607619 1222.64406058 1063.68855056 1223.71875 1065.5 C1224.26402344 1066.41910156 1224.80929687 1067.33820313 1225.37109375 1068.28515625 C1227.85079449 1072.41799082 1230.41623271 1076.49415125 1233 1080.5625 C1233.49580566 1081.34334961 1233.99161133 1082.12419922 1234.50244141 1082.92871094 C1235.50397953 1084.50427367 1236.50609319 1086.07947069 1237.50878906 1087.65429688 C1239.47982243 1090.75476979 1241.43917481 1093.86253946 1243.3984375 1096.97045898 C1248.24605058 1104.65947225 1253.11700977 1112.33341134 1258 1120 C1263.87091547 1129.21769077 1269.71556972 1138.45160154 1275.54541016 1147.6953125 C1276.99081789 1149.98545164 1278.43840684 1152.27419657 1279.88671875 1154.5625 C1282.92991634 1159.37157924 1285.96699443 1164.18448663 1289 1169 C1289.56557617 1169.89783203 1290.13115234 1170.79566406 1290.71386719 1171.72070312 C1298.30019143 1183.7771679 1305.79363948 1195.88725902 1313.1875 1208.0625 C1313.55152924 1208.66150116 1313.91555847 1209.26050232 1314.2906189 1209.87765503 C1315.97329655 1212.64814939 1317.64952358 1215.42211461 1319.31396484 1218.20361328 C1320.323038 1219.87721941 1321.34910159 1221.5410167 1322.40869141 1223.18310547 C1325.05747789 1227.38786998 1325.05747789 1227.38786998 1324.77758789 1230.36865234 C1323.9017749 1233.33239252 1322.67279366 1235.50275352 1321.0078125 1238.10546875 C1320.39099609 1239.07935547 1319.77417969 1240.05324219 1319.13867188 1241.05664062 C1318.47416016 1242.08982422 1317.80964844 1243.12300781 1317.125 1244.1875 C1315.74143819 1246.36801432 1314.35863055 1248.54900734 1312.9765625 1250.73046875 C1312.2949707 1251.80216309 1311.61337891 1252.87385742 1310.91113281 1253.97802734 C1308.39434055 1257.95769707 1305.93989056 1261.97289642 1303.5 1266 C1299.28669549 1272.93230511 1294.99727231 1279.81480438 1290.6875 1286.6875 C1285.66807795 1294.69295883 1280.709249 1302.73143711 1275.8125 1310.8125 C1270.67190015 1319.29198737 1265.43331573 1327.70145736 1260.12109375 1336.07421875 C1250.98845392 1350.46993466 1241.99416503 1364.94910649 1233.15356445 1379.52587891 C1228.53778234 1387.13306694 1223.86768951 1394.70548051 1219.17333984 1402.2644043 C1218.19435689 1403.84106401 1217.21669317 1405.41854409 1216.24072266 1406.99707031 C1215.21305964 1408.65605247 1214.17609392 1410.30926794 1213.13671875 1411.9609375 C1211.83769299 1413.90206479 1211.83769299 1413.90206479 1212 1416 C1229.6891821 1416.37439147 1247.3773314 1416.65620337 1265.06962395 1416.82899475 C1273.28539623 1416.91137324 1281.49870216 1417.02358491 1289.71289062 1417.20703125 C1296.87581081 1417.36692297 1304.03694507 1417.46982238 1311.20160019 1417.50541592 C1314.99360329 1417.52621616 1318.78049968 1417.57475899 1322.570858 1417.69168091 C1337.575747 1418.85396388 1337.575747 1418.85396388 1351.21878433 1414.44561005 C1354.6623411 1410.74887823 1356.60060857 1406.66745343 1358.25764942 1401.93814182 C1359.34648284 1399.09539657 1361.00509241 1396.73835756 1362.7578125 1394.265625 C1363.59566284 1393.0137439 1363.59566284 1393.0137439 1364.45043945 1391.73657227 C1365.00304443 1390.91600342 1365.55564941 1390.09543457 1366.125 1389.25 C1366.7233667 1388.35659912 1367.3217334 1387.46319824 1367.93823242 1386.54272461 C1369.62335339 1384.02704219 1371.31123015 1381.51323377 1373 1379 C1377.45474444 1372.36192987 1381.85590055 1365.69555184 1386.16674805 1358.96289062 C1389.79014332 1353.31024318 1393.45535864 1347.68520865 1397.125 1342.0625 C1398.08273315 1340.59502319 1398.08273315 1340.59502319 1399.05981445 1339.09790039 C1401.03959914 1336.06508588 1403.01978721 1333.032535 1405 1330 C1407.58388303 1326.04202518 1410.16721242 1322.08368975 1412.75 1318.125 C1413.69939453 1316.6699707 1413.69939453 1316.6699707 1414.66796875 1315.18554688 C1417.75159462 1310.45710595 1420.82831971 1305.72447635 1423.88793945 1300.98046875 C1429.12157406 1292.86611441 1434.40310183 1284.78336754 1439.69714355 1276.70834351 C1440.60516947 1275.32282261 1441.51264303 1273.93693956 1442.41955566 1272.5506897 C1447.35008586 1265.01458846 1452.31444981 1257.50659565 1457.39453125 1250.0703125 C1458.24295702 1248.8222387 1459.09118742 1247.57403207 1459.93920898 1246.32568359 C1461.53072092 1243.98304066 1463.13783594 1241.6522361 1464.75415039 1239.32666016 C1465.81557251 1237.7650415 1465.81557251 1237.7650415 1466.8984375 1236.171875 C1467.83695557 1234.8120752 1467.83695557 1234.8120752 1468.79443359 1233.42480469 C1470.20881783 1231.1579826 1470.20881783 1231.1579826 1469.72006226 1229.08662415 C1468.94953791 1226.85376902 1467.98724679 1225.15803875 1466.68457031 1223.18920898 C1466.19657455 1222.44580261 1465.7085788 1221.70239624 1465.20579529 1220.9364624 C1464.66866409 1220.13114075 1464.1315329 1219.32581909 1463.578125 1218.49609375 C1463.01428604 1217.64138489 1462.45044708 1216.78667603 1461.86952209 1215.90606689 C1460.00216286 1213.07931547 1458.1262997 1210.25832347 1456.25 1207.4375 C1454.94657591 1205.46934417 1453.64343851 1203.50099845 1452.34057617 1201.5324707 C1440.22282421 1183.24731441 1427.95509181 1165.06316772 1415.65841675 1146.89805603 C1410.73673297 1139.62225163 1405.86199384 1132.31577345 1401 1125 C1399.66700028 1122.99977763 1398.33367592 1120.99977157 1397 1119 C1394.93972478 1115.91048239 1392.88048118 1112.82029937 1390.82397461 1109.72827148 C1384.92823772 1100.86677608 1378.98899772 1092.03540574 1373.02319336 1083.22094727 C1371.56607051 1081.0677761 1370.11013789 1078.91380363 1368.65429688 1076.75976562 C1368.1746347 1076.05089203 1367.69497253 1075.34201843 1367.20077515 1074.61166382 C1366.24149949 1073.19349946 1365.28333613 1071.77458205 1364.32632446 1070.35488892 C1361.87905291 1066.73350465 1359.40008314 1063.14054754 1356.86279297 1059.58154297 C1356.10239967 1058.50555092 1356.10239967 1058.50555092 1355.3266449 1057.40782166 C1354.36367364 1056.04819389 1353.39221486 1054.69452176 1352.41078186 1053.34815979 C1349.75124486 1049.57750838 1348.36721857 1046.72844975 1348 1042 C1346.68 1042 1345.36 1042 1344 1042 Z M776 1046 C779.0237338 1048.323667 781.95341868 1050.07185733 785.3984375 1051.72265625 C786.49768555 1052.25165527 787.59693359 1052.7806543 788.72949219 1053.32568359 C789.94460506 1053.90474076 791.1597763 1054.48367545 792.375 1055.0625 C793.65801801 1055.67760436 794.94089187 1056.29300947 796.22363281 1056.90869141 C807.5194833 1062.32257521 818.84785533 1067.66849085 830.17330933 1073.02008057 C843.01486384 1079.08887424 855.81284405 1085.24239576 868.58544922 1091.45483398 C869.92284295 1092.10532371 871.26024512 1092.75579605 872.59765625 1093.40625 C873.24059631 1093.71897354 873.88353638 1094.03169708 874.54595947 1094.35389709 C880.14339102 1097.07429144 885.75644593 1099.76107523 891.375 1102.4375 C901.83848127 1107.4240252 912.26234768 1112.49090855 922.68530273 1117.56140137 C931.73575278 1121.96392142 940.79375234 1126.34875177 949.875 1130.6875 C963.45143522 1137.18127781 976.96157301 1143.81080442 990.47827148 1150.42773438 C992.43732785 1151.38673793 994.39639362 1152.34572228 996.35546875 1153.3046875 C997.32806137 1153.78077454 998.30065399 1154.25686157 999.30271912 1154.74737549 C1006.66149826 1158.34819102 1014.02625829 1161.93658097 1021.3941803 1165.51864624 C1027.8406387 1168.65276659 1034.28313785 1171.79492225 1040.72349548 1174.94155884 C1045.12823733 1177.09208328 1049.54163533 1179.22331855 1053.9609375 1181.34375 C1071.73269249 1189.93058354 1083.8846228 1198.84962934 1091 1218 C1096.07019573 1233.44825262 1093.40747336 1249.52900079 1086.25 1263.6875 C1079.24706622 1275.79456213 1069.54134185 1283.33817252 1056.1328125 1287.4921875 C1051.02808897 1288.70759786 1046.16505784 1289.12734256 1040.92106056 1289.1386652 C1040.22865778 1289.14150742 1039.536255 1289.14434964 1038.82287031 1289.14727798 C1036.50361569 1289.15559739 1034.1844112 1289.15689102 1031.86514282 1289.15821838 C1030.18529435 1289.16278561 1028.505447 1289.16778587 1026.82560098 1289.17318195 C1022.21012059 1289.18675416 1017.59464756 1289.19417877 1012.97915244 1289.20060861 C1008.00169751 1289.20861657 1003.02425788 1289.22231299 998.04681396 1289.23532104 C989.42323918 1289.25707816 980.79966284 1289.27522546 972.17607498 1289.29092598 C959.70779004 1289.31363155 947.23952205 1289.34177345 934.77125148 1289.37124526 C914.54265821 1289.41891272 894.31405801 1289.4621792 874.08544922 1289.50268555 C854.43440207 1289.54204477 834.78336107 1289.58347203 815.13232422 1289.62768555 C813.31560842 1289.63177196 813.31560842 1289.63177196 811.4621913 1289.63594092 C805.3862821 1289.64962047 799.31037299 1289.66334073 793.23446393 1289.67708123 C742.8229888 1289.79103272 692.41150032 1289.89784502 642 1290 C640.25060926 1293.32986589 638.50285457 1296.66058793 636.75537109 1299.99145508 C636.26495834 1300.92487984 635.77454559 1301.8583046 635.26927185 1302.82001495 C632.43056861 1308.23298963 629.63193429 1313.6620566 626.9140625 1319.13671875 C626.58002977 1319.80931952 626.24599705 1320.4819203 625.90184212 1321.17490292 C625.60197836 1321.77895741 625.3021146 1322.38301191 624.99316406 1323.00537109 C621.1938165 1330.64473784 617.27251504 1338.22292192 613.375 1345.8125 C612.49315208 1347.53132523 611.61131629 1349.25015669 610.72949219 1350.96899414 C605.03429789 1362.06479697 599.30547445 1373.14263013 593.54907227 1384.20678711 C589.80208192 1391.41933298 586.13466542 1398.66602472 582.55078125 1405.9609375 C581 1409 581 1409 579.29296875 1411.7890625 C577.831727 1413.86086637 577.831727 1413.86086637 578 1416 C623.16865174 1416.03425134 668.33730497 1416.06609067 713.50596619 1416.08468628 C714.1749304 1416.08496239 714.84389461 1416.08523851 715.53313047 1416.08552299 C730.07301373 1416.0915094 744.61289712 1416.09704968 759.15278072 1416.10213066 C766.28357585 1416.10462524 773.41437094 1416.10721836 780.54516602 1416.10986328 C781.25474975 1416.1101248 781.96433349 1416.11038632 782.69541976 1416.11065576 C805.67743963 1416.11917197 828.65944963 1416.13418975 851.64146353 1416.15259444 C875.26686134 1416.17147992 898.8922537 1416.18377559 922.51765893 1416.18782998 C937.73667884 1416.19045568 952.95567182 1416.1988294 968.17468285 1416.21583293 C978.15455836 1416.22641425 988.13441925 1416.22959802 998.11429996 1416.22700275 C1003.86995999 1416.22572326 1009.62557056 1416.22766879 1015.38122177 1416.23841095 C1020.65758861 1416.24818637 1025.93387302 1416.24860715 1031.21024375 1416.24179779 C1033.11224937 1416.24095693 1035.01426026 1416.24345744 1036.9162556 1416.24976636 C1069.66311725 1416.35201198 1100.19330754 1408.63078982 1129 1393 C1130.06605469 1392.42507813 1131.13210938 1391.85015625 1132.23046875 1391.2578125 C1142.66459128 1385.39958588 1151.92762381 1378.22345007 1160.69921875 1370.109375 C1162.7713264 1368.20964982 1164.89841131 1366.41773619 1167.0625 1364.625 C1172.02363159 1360.29148144 1175.96815711 1355.18478426 1180 1350 C1180.7321875 1349.08347656 1181.464375 1348.16695312 1182.21875 1347.22265625 C1198.89886858 1325.81454632 1208.85760853 1301.30472709 1215 1275 C1215.27884033 1273.82179688 1215.55768066 1272.64359375 1215.8449707 1271.4296875 C1218.25236096 1260.15187469 1218.51417297 1249.12841097 1218.4375 1237.625 C1218.43445862 1236.65844482 1218.43141724 1235.69188965 1218.42828369 1234.69604492 C1218.20540465 1186.72455004 1203.20542136 1143.15174268 1170 1108 C1168.95779297 1106.87851563 1168.95779297 1106.87851563 1167.89453125 1105.734375 C1147.08250615 1084.05044357 1118.53296381 1071.23576746 1091.1483326 1059.97050858 C1088.05274505 1058.59388043 1085.29809064 1056.95521567 1082.46945 1055.09330368 C1067.7210778 1045.62974788 1055.28318734 1044.28225166 1038.0136323 1044.60721254 C1034.48300161 1044.6599565 1030.95256096 1044.64143437 1027.42164612 1044.63238525 C1021.33121694 1044.62614957 1015.24235261 1044.66319129 1009.15231705 1044.73123932 C1000.34787775 1044.82955214 991.54418053 1044.8600955 982.73925196 1044.87509522 C968.44781139 1044.90123729 954.15720153 1044.9807612 939.86621094 1045.09472656 C925.99939067 1045.20519304 912.13279755 1045.28997676 898.265625 1045.34082031 C897.40816319 1045.34397299 896.55070139 1045.34712568 895.66725589 1045.35037389 C891.36481467 1045.36603648 887.06237186 1045.38120046 882.75992799 1045.39611673 C847.1726937 1045.52013808 811.58642405 1045.73115874 776 1046 Z " fill="#FDFDFD" transform="translate(0,0)"/>
<path d="M0 0 C36.51035152 -0.22927361 73.02057604 -0.40529104 109.53150018 -0.51065329 C113.84945182 -0.52315921 118.16740204 -0.53610254 122.48535156 -0.54931641 C123.34491764 -0.55193951 124.20448373 -0.55456261 125.09009726 -0.55726521 C138.97795705 -0.60068752 152.86539965 -0.67948216 166.75301258 -0.77152796 C181.02061003 -0.86529816 195.28799014 -0.92064128 209.55588305 -0.94088495 C218.348465 -0.95455408 227.13986747 -0.99760069 235.93208601 -1.07916467 C241.97486771 -1.1323407 248.01704661 -1.14793076 254.06004487 -1.13501377 C257.53843932 -1.12865616 261.01478477 -1.13785646 264.49280739 -1.19205475 C280.38255054 -1.40303897 292.01219717 -0.49135322 305.20769429 8.80618596 C308.00479535 10.66927131 310.94747608 12.00535133 314.00390625 13.3984375 C315.08124023 13.89102051 316.15857422 14.38360352 317.26855469 14.89111328 C318.35555664 15.3807959 319.44255859 15.87047852 320.5625 16.375 C322.36462864 17.20279906 324.16674787 18.03061977 325.96817017 18.85995483 C330.12297073 20.77154639 334.28268799 22.67242311 338.44287109 24.57226562 C357.32100321 33.2340292 373.62758103 43.0156765 389 57 C389.49419434 57.44359863 389.98838867 57.88719727 390.49755859 58.34423828 C411.44229272 77.37173958 424.96864192 102.50537719 434 129 C434.40863281 130.16144531 434.81726562 131.32289063 435.23828125 132.51953125 C436.34397991 135.98177686 437.22491832 139.45283202 438 143 C438.18046875 143.79647949 438.3609375 144.59295898 438.546875 145.41357422 C444.84987607 174.59157158 445.43392203 208.2597026 437 237 C436.54611358 238.72307529 436.09559267 240.44704063 435.6484375 242.171875 C426.87092905 274.80787909 407.56377645 306.70196331 381 328 C380.03449219 328.77988281 379.06898438 329.55976562 378.07421875 330.36328125 C355.06216321 348.66346142 328.14340726 360.44626235 299.5 366.625 C298.53191406 366.8415625 297.56382812 367.058125 296.56640625 367.28125 C295.60605469 367.49007813 294.64570312 367.69890625 293.65625 367.9140625 C292.80869141 368.0992041 291.96113281 368.2843457 291.08789062 368.47509766 C280.33391065 370.30313821 269.59853571 370.13813724 258.72665405 370.12025452 C256.75461838 370.12069091 254.78258277 370.12156707 252.81054747 370.12284368 C247.4059844 370.12507527 242.00144121 370.12108564 236.59688067 370.11606562 C230.76332778 370.11174212 224.92977597 370.1132089 219.09622192 370.1139679 C208.99395864 370.11449192 198.89170182 370.11135774 188.78944016 370.10573006 C174.18331317 370.09759869 159.57718867 370.09499482 144.97105975 370.09374207 C121.2728597 370.09164306 97.57466301 370.08490961 73.87646484 370.07543945 C50.85758482 370.0662514 27.83870571 370.05916956 4.81982422 370.05493164 C3.75504119 370.05473435 3.75504119 370.05473435 2.66874739 370.05453308 C-4.46007477 370.05321453 -11.58889693 370.05193872 -18.7177191 370.05069422 C-33.23925216 370.04815817 -47.76078515 370.04533692 -62.28231812 370.04234314 C-62.94995794 370.04220585 -63.61759777 370.04206856 -64.30546911 370.04192711 C-108.87031414 370.03273034 -153.43515729 370.01686476 -198 370 C-196.40867926 365.94870179 -194.59128745 362.06785938 -192.625 358.1875 C-191.90602684 356.76052908 -191.18729237 355.33343789 -190.46875 353.90625 C-190.07558594 353.12636719 -189.68242188 352.34648438 -189.27734375 351.54296875 C-187.89594588 348.79284639 -186.52523523 346.03757147 -185.15625 343.28125 C-180.25304675 333.41728104 -175.30669387 323.58553668 -170.14111328 313.85620117 C-165.85765511 305.77333406 -161.68160332 297.63585074 -157.5 289.5 C-152.42481874 279.62683992 -147.34138821 269.75973646 -142.13085938 259.95703125 C-140.16171468 256.24524831 -138.24563772 252.51183013 -136.37011719 248.75170898 C-135.92480652 247.859431 -135.47949585 246.96715302 -135.02069092 246.0478363 C-134.68386292 245.37205032 -134.34703491 244.69626434 -134 244 C-133.14547296 243.99902319 -132.29094593 243.99804638 -131.41052413 243.99703997 C-80.75591156 243.93875852 -30.10134186 243.86495456 20.55321778 243.77101372 C26.63638978 243.75974566 32.719562 243.74860719 38.80273438 243.73754883 C40.01377625 243.73534514 41.22481812 243.73314146 42.47255823 243.730871 C62.07741951 243.69550583 81.68228075 243.67063728 101.2871621 243.64965298 C121.40598634 243.62788474 141.52476921 243.59482454 161.64355826 243.55129844 C174.05629752 243.52479943 186.46898525 243.50709115 198.88175139 243.50065396 C207.39550702 243.49539475 215.90919782 243.47915977 224.42291871 243.45433434 C229.33368309 243.44033774 234.24433146 243.43114169 239.15511703 243.43499184 C243.65607283 243.43841359 248.15678127 243.42797101 252.65768644 243.40676448 C254.28103011 243.40151618 255.9043996 243.40124098 257.52774289 243.40660437 C273.8972932 243.45515487 289.82372074 240.73549449 302.1953125 229.03125 C314.38605539 215.31006752 318.00152337 199.76648742 317 182 C315.49147795 169.18448241 309.57267615 156.76848922 300 148 C291.00461395 141.30550705 280.64217335 136.62618421 270.63476562 131.67675781 C267.79512768 130.27231941 264.95969407 128.8596985 262.125 127.4453125 C251.72284505 122.26635118 241.27226003 117.19712058 230.78121948 112.20094299 C220.52317939 107.3099132 210.32418808 102.30021127 200.1260376 97.28579712 C181.86780074 88.30955907 163.59109725 79.37577535 145.25292969 70.56396484 C140.02026233 68.04816876 134.79149653 65.52429762 129.56289673 63.00006104 C127.75979592 62.12972836 125.95643673 61.25993106 124.15307617 60.39013672 C117.70418242 57.27872581 111.2610083 54.15591036 104.82421875 51.01953125 C90.95821116 44.26680706 77.06563006 37.60314753 63.05224609 31.15966797 C50.80635257 25.50009344 38.69675752 19.56268689 26.58544922 13.62182617 C17.77218211 9.30189347 8.93935534 5.05483182 0 1 C0 0.67 0 0.34 0 0 Z " fill="#452A95" transform="translate(776,1046)"/>
<path d="M0 0 C3.66090612 1.46436245 5.82354439 2.39773521 8.828125 4.6171875 C9.89039307 5.39437134 9.89039307 5.39437134 10.97412109 6.18725586 C11.72516113 6.74421143 12.47620117 7.30116699 13.25 7.875 C14.87182498 9.0619783 16.49423414 10.24815875 18.1171875 11.43359375 C19.34453613 12.33247314 19.34453613 12.33247314 20.59667969 13.24951172 C24.16432395 15.84804985 27.76567653 18.39730416 31.375 20.9375 C32.06585693 21.42412109 32.75671387 21.91074219 33.46850586 22.41210938 C43.98876448 29.81404802 54.52923991 37.18750052 65.08203125 44.54296875 C75.45167319 51.77657776 85.74011314 59.11183888 95.97607422 66.53320312 C104.35935786 72.60880845 112.80697944 78.56208545 121.375 84.375 C128.11286701 88.94971361 134.67843569 93.69335239 141.15844727 98.625 C145.62447341 102.00944958 150.17465917 105.23082771 154.8125 108.375 C161.67945458 113.03256441 168.36784006 117.90482567 175.03173828 122.84765625 C181.96040368 127.98528662 188.96031062 133.01594586 196 138 C194.59533546 142.21399363 191.53071285 143.85955704 188.0625 146.375 C187.34811768 146.90174316 186.63373535 147.42848633 185.89770508 147.97119141 C183.60514862 149.65682881 181.30414556 151.33024509 179 153 C178.26942383 153.52980469 177.53884766 154.05960938 176.78613281 154.60546875 C173.8351394 156.74253148 170.88142001 158.87573982 167.92382812 161.00366211 C159.22783987 167.2615488 150.61565061 173.63221583 142 180 C131.96072481 187.41997795 121.90471554 194.81220731 111.77148438 202.10351562 C106.29598931 206.04874133 100.86181228 210.04728601 95.4375 214.0625 C87.31281164 220.07088979 79.09530675 225.93500927 70.81396484 231.72509766 C69.16661335 232.88289974 67.52993838 234.05585558 65.89453125 235.23046875 C65.02183594 235.85566406 64.14914062 236.48085938 63.25 237.125 C62.53328125 237.64320313 61.8165625 238.16140625 61.078125 238.6953125 C57.24557072 241.101465 54.56229876 242 50 242 C49.67 242.99 49.34 243.98 49 245 C48.01 245 47.02 245 46 245 C46 245.66 46 246.32 46 247 C44.30794462 249.13733311 43.0749567 249.97189124 40.5 250.9375 C37.60765926 252.16674481 36.81833744 253.52044894 35 256 C34.01 256 33.02 256 32 256 C32 256.66 32 257.32 32 258 C29.09399739 259.25664978 27.20395416 260 24 260 C23.67 261.32 23.34 262.64 23 264 C22.37351562 264.04898437 21.74703125 264.09796875 21.1015625 264.1484375 C19.87566406 264.26058594 19.87566406 264.26058594 18.625 264.375 C17.81289062 264.44460938 17.00078125 264.51421875 16.1640625 264.5859375 C13.79665809 264.82892588 13.79665809 264.82892588 12 267 C9.36 267.33 6.72 267.66 4 268 C4 245.56 4 223.12 4 200 C-77.18 200 -158.36 200 -242 200 C-242 200.66 -242 201.32 -242 202 C-245.63 202.99 -249.26 203.98 -253 205 C-253 205.66 -253 206.32 -253 207 C-253.99 207 -254.98 207 -256 207 C-256 207.66 -256 208.32 -256 209 C-257.65 208.67 -259.3 208.34 -261 208 C-261 209.65 -261 211.3 -261 213 C-261.66 213 -262.32 213 -263 213 C-263.09667969 213.72058594 -263.19335938 214.44117188 -263.29296875 215.18359375 C-264.10276685 218.40936408 -265.40222843 220.35048704 -267.3125 223.0625 C-275.81220059 236.26676738 -277.23779087 251.3441358 -274.19921875 266.67578125 C-270.81221933 280.36414924 -262.13820874 291.5076006 -250.1875 298.75 C-242.35188598 303.10930386 -234.11882038 306.72465142 -225.97363281 310.45703125 C-215.5529872 315.23605966 -205.23598031 320.21367541 -194.9375 325.25 C-194.10678986 325.65606476 -193.27607971 326.06212952 -192.42019653 326.48049927 C-189.05304848 328.12663616 -185.68613996 329.77326041 -182.31977844 331.42100525 C-174.92054348 335.04208868 -167.50999083 338.63955728 -160.09729004 342.23297119 C-138.67198948 352.62263952 -117.2742234 363.06886715 -95.90466309 373.57269287 C-93.02457061 374.98792638 -90.14365124 376.40146662 -87.26269531 377.81494141 C-82.77562175 380.0179192 -78.29322858 382.23015539 -73.81436157 384.44976807 C-72.16190212 385.26728006 -70.50809424 386.08207272 -68.85287476 386.89398193 C-66.58161372 388.00888677 -64.31564372 389.13388521 -62.05078125 390.26171875 C-61.38954254 390.58360672 -60.72830383 390.90549469 -60.04702759 391.23713684 C-56.43835447 393.04998372 -53.58238247 394.86774433 -51 398 C-51 398.66 -51 399.32 -51 400 C-85.35351137 400.16030229 -119.70693721 400.2836082 -154.06074195 400.35745731 C-158.11862025 400.36621201 -162.1764978 400.37527229 -166.234375 400.38452148 C-167.44612525 400.38727574 -167.44612525 400.38727574 -168.6823553 400.39008565 C-181.75426408 400.4205259 -194.82595686 400.47570731 -207.89773761 400.54006957 C-221.31553966 400.60558343 -234.73322877 400.64442266 -248.1511842 400.65861946 C-256.42762225 400.66821346 -264.70344975 400.69848875 -272.97969981 400.75541527 C-278.65886724 400.79248298 -284.33772009 400.80358597 -290.01699965 400.79450964 C-293.29154502 400.79003585 -296.56480427 400.80063459 -299.8392086 400.83443832 C-303.39673208 400.86936021 -306.95166108 400.86086167 -310.50924683 400.84178162 C-311.5345654 400.86217151 -312.55988397 400.8825614 -313.61627281 400.90356916 C-321.16351132 400.79444243 -326.61916129 398.41431691 -332 393 C-332 392.01 -332 391.02 -332 390 C-334.53591031 388.62638192 -336.6671733 387.83320668 -339.5 387.125 C-360.34934246 379.43753295 -377.19869802 345.93102665 -386 327 C-395.81882503 304.52019134 -400.73676221 280.70725484 -400.46655273 256.23339844 C-400.43743448 253.36855376 -400.44604629 250.50555713 -400.45898438 247.640625 C-400.40876695 204.3913864 -384.75595284 161.78042038 -354.45507812 130.51074219 C-352.96603381 128.96473443 -351.50665877 127.39393262 -350.046875 125.8203125 C-321.1500774 95.21639517 -278.05618113 77.19887157 -236.23239708 75.7308445 C-229.95516021 75.59888134 -223.67927224 75.62768536 -217.40112305 75.65942383 C-215.01381949 75.66027238 -212.62651515 75.65979052 -210.23921204 75.65809631 C-203.82736642 75.65724384 -197.41569293 75.67474712 -191.00388694 75.69581819 C-184.9611428 75.71279084 -178.91840839 75.71569909 -172.87564407 75.7187738 C-160.92446968 75.72530362 -148.9733575 75.74516937 -137.0222168 75.77368164 C-125.42814439 75.80131289 -113.83408902 75.82250179 -102.23999023 75.83520508 C-101.5226545 75.83599325 -100.80531876 75.83678142 -100.06624558 75.83759347 C-96.46678376 75.84150922 -92.86732183 75.84530019 -89.26785982 75.84902918 C-59.51185681 75.88001677 -29.75595357 75.93526046 0 76 C0 50.92 0 25.84 0 0 Z " fill="#017EC6" transform="translate(1008,600)"/>
<path d="M0 0 C17.39378473 -0.42150674 34.78596489 -0.73837509 52.18369675 -0.93261909 C60.26304104 -1.02523253 68.33920338 -1.15133785 76.41650391 -1.35791016 C83.46152109 -1.53799567 90.50423425 -1.65359577 97.55148911 -1.69359291 C101.28049359 -1.71696278 105.00291122 -1.77133735 108.72978973 -1.90314102 C131.31382558 -2.67114756 131.31382558 -2.67114756 137.38082886 1.72524261 C141.27810305 5.87334963 143.71412311 10.505458 145.93879986 15.70318985 C147.64536527 19.39679731 149.9852035 22.60660388 152.34375 25.90625 C153.20306966 27.16595755 154.05980553 28.42743532 154.9128418 29.69140625 C155.54746841 30.62557373 155.54746841 30.62557373 156.19491577 31.57861328 C163.65594438 42.5629781 171.08612365 53.56636818 178.42651367 64.63183594 C180.52027391 67.78303444 182.6195961 70.93051841 184.71875 74.078125 C187.67548859 78.51168355 190.6304633 82.94639642 193.58091736 87.38414001 C203.99488986 103.04727764 214.46159312 118.6737641 224.98587036 134.26303101 C226.86294857 137.04464119 228.73826518 139.82743071 230.61303711 142.6105957 C237.86561626 153.37988886 237.86561626 153.37988886 245.18405151 164.10444641 C246.38064113 165.84689101 247.57238076 167.59253179 248.76220703 169.33959961 C250.12270254 171.33443755 251.49275976 173.3228048 252.87451172 175.30297852 C253.44959473 176.15045654 254.02467773 176.99793457 254.6171875 177.87109375 C255.10815918 178.58193115 255.59913086 179.29276855 256.10498047 180.02514648 C257 182 257 182 256.78442383 184.03271484 C255.9699184 186.07544275 255.04087015 187.76843356 253.83203125 189.60546875 C253.36192627 190.32508789 252.89182129 191.04470703 252.4074707 191.78613281 C251.61796021 192.97480957 251.61796021 192.97480957 250.8125 194.1875 C250.2558667 195.03538086 249.6992334 195.88326172 249.12573242 196.75683594 C245.3086284 202.55499422 241.44989594 208.32542792 237.59375 214.09765625 C237.11959152 214.80774338 236.64543304 215.51783051 236.15690613 216.24943542 C233.79017962 219.79305831 231.42046232 223.33459707 229.04418945 226.87182617 C224.11747682 234.22052342 219.31507931 241.62808217 214.6517334 249.14677429 C210.85738187 255.25739812 206.93941363 261.28130332 202.9821167 267.287323 C201.34904532 269.76590488 199.72010704 272.2471951 198.09075928 274.72822571 C197.2604409 275.99243051 196.42991698 277.25650034 195.59918213 278.52043152 C191.67908122 284.48493392 187.77385539 290.45908823 183.875 296.4375 C182.95291748 297.85107788 182.95291748 297.85107788 182.01220703 299.29321289 C178.71722964 304.34945457 175.44048739 309.41666115 172.1875 314.5 C169.37688866 318.8841396 166.52346985 323.23611645 163.625 327.5625 C158.82614511 334.72595033 154.09089375 341.93078958 149.36322021 349.1413269 C148.50098879 350.45627939 147.63840331 351.77099979 146.77545166 353.08547974 C145.54848181 354.95474581 144.32287163 356.82489611 143.09765625 358.6953125 C142.38101807 359.78859863 141.66437988 360.88188477 140.92602539 362.00830078 C138.99161018 364.87736855 138.99161018 364.87736855 137.72723675 367.64940166 C136 370 136 370 133.49127674 370.61523914 C131.97999714 370.6083257 131.97999714 370.6083257 130.43818665 370.60127258 C128.702892 370.61158257 128.702892 370.61158257 126.93254089 370.62210083 C125.66227554 370.60412445 124.39201019 370.58614807 123.08325195 370.56762695 C121.73307345 370.5662167 120.38289111 370.56700803 119.03271484 370.56983948 C115.3653191 370.57127597 111.69873855 370.5418499 108.03153253 370.50696969 C104.19987114 370.47574425 100.36819172 370.47277849 96.53642273 370.46684265 C89.27961039 370.45129288 82.02317402 370.41024944 74.76652735 370.3600952 C66.50548311 370.3042367 58.24442104 370.27672409 49.983235 370.25161803 C32.98860575 370.19933428 15.99434261 370.11137037 -1 370 C0.32861764 366.60745487 1.76233893 363.50560956 3.6171875 360.3671875 C4.13514893 359.48901367 4.65311035 358.61083984 5.18676758 357.70605469 C5.74388428 356.77180664 6.30100098 355.83755859 6.875 354.875 C7.74838013 353.40401855 7.74838013 353.40401855 8.6394043 351.90332031 C12.7439336 345.02332621 16.96078454 338.22333547 21.26708984 331.46826172 C25.58443489 324.68987565 29.79870335 317.85081207 34 311 C38.62027751 303.46985445 43.26295655 295.95728556 48 288.5 C54.80282678 277.78668493 61.4238414 266.96224649 68.06445312 256.14794922 C70.92931088 251.48858042 73.80687399 246.83713203 76.6875 242.1875 C77.21206787 241.34074707 77.73663574 240.49399414 78.27709961 239.62158203 C79.32575157 237.92914049 80.37449767 236.23675727 81.42333984 234.54443359 C84.65210448 229.33381343 87.87760502 224.12117185 91.10375977 218.90893555 C93.93532069 214.33447855 96.7677775 209.76057961 99.6015625 205.1875 C100.19130859 204.23552734 100.78105469 203.28355469 101.38867188 202.30273438 C102.51729356 200.48094347 103.64618487 198.65931956 104.77539062 196.83789062 C105.76775957 195.23579816 106.75607104 193.63118132 107.73925781 192.0234375 C108.75591169 190.39175134 109.83377002 188.79829098 110.9296875 187.21875 C112.16363903 185.06988137 112.16363903 185.06988137 112.00390625 182.73046875 C110.48883663 178.6097152 108.24237471 175.03721007 105.9375 171.3125 C105.14762695 170.01711304 105.14762695 170.01711304 104.34179688 168.69555664 C102.56853398 165.79247929 100.78420743 162.89636184 99 160 C97.6883073 157.85707361 96.37712253 155.71383625 95.06640625 153.5703125 C87.15063776 140.64565294 79.13786086 127.78584138 71 115 C70.44602539 114.12923828 69.89205078 113.25847656 69.32128906 112.36132812 C66.9531777 108.63944423 64.58457443 104.9178746 62.21484375 101.19702148 C56.9446727 92.92020621 51.70231108 84.62604231 46.46777344 76.32666016 C44.48151183 73.17811173 42.49354113 70.03064437 40.50537109 66.88330078 C39.50024323 65.29198418 38.49536115 63.70051231 37.49072266 62.10888672 C35.04528128 58.23502222 32.59681154 54.36315562 30.140625 50.49609375 C22.21182632 37.99966143 14.4466567 25.40534576 6.71923828 12.78369141 C5.17969982 10.29095958 3.60798767 7.822206 2.02734375 5.35546875 C0 2 0 2 0 0 Z " fill="#442A93" transform="translate(1213,1046)"/>
<path d="M0 0 C0.98194999 -0.00085442 1.96389998 -0.00170885 2.97560602 -0.00258917 C6.25675107 -0.00423262 9.53784467 0.00125882 12.81898499 0.00672913 C15.17466735 0.00701127 17.53034979 0.00685273 19.8860321 0.00628662 C26.27591737 0.0059997 32.66578387 0.01187944 39.05566478 0.01886058 C45.05854632 0.02447818 51.0614279 0.02548396 57.06431157 0.02651245 C68.95112682 0.02869897 80.83793519 0.03534821 92.7247467 0.04481506 C104.26901719 0.05399953 115.8132858 0.0610753 127.3575592 0.06532288 C128.06961208 0.0655856 128.78166496 0.06584832 129.5152952 0.06611901 C133.08759378 0.06742408 136.65989237 0.06868778 140.23219097 0.06993091 C169.84974991 0.08029107 199.46730169 0.09797305 229.08485413 0.12025452 C230.50761767 2.9657816 230.16018188 5.31747441 230.10658264 8.49769592 C230.09217133 9.47836784 230.09217133 9.47836784 230.07746887 10.47885132 C230.04444556 12.64328164 230.00412615 14.8075122 229.96376038 16.97181702 C229.9394625 18.47110791 229.91561878 19.97040623 229.89221191 21.4697113 C229.82933783 25.41863959 229.76028066 29.36743669 229.68995667 33.3162384 C229.6193032 37.34459959 229.55446837 41.3730539 229.489151 45.40150452 C229.36009582 53.30785762 229.2245117 61.21408163 229.08485413 69.12025452 C230.54379673 68.64294613 232.00198909 68.16334409 233.45985413 67.68275452 C234.2719635 67.41591858 235.08407288 67.14908264 235.92079163 66.87416077 C238.09517211 66.16845723 238.09517211 66.16845723 240.08485413 65.12025452 C242.74241878 64.68800003 245.40818297 64.42245932 248.08485413 64.12025452 C248.41485413 63.13025452 248.74485413 62.14025452 249.08485413 61.12025452 C251.98043853 59.67246231 253.8267435 59.12025452 257.08485413 59.12025452 C257.08485413 58.46025452 257.08485413 57.80025452 257.08485413 57.12025452 C264.02235413 51.12025452 264.02235413 51.12025452 268.08485413 51.12025452 C268.41485413 50.13025452 268.74485413 49.14025452 269.08485413 48.12025452 C269.74485413 48.12025452 270.40485413 48.12025452 271.08485413 48.12025452 C271.08485413 47.46025452 271.08485413 46.80025452 271.08485413 46.12025452 C272.56985413 45.62525452 272.56985413 45.62525452 274.08485413 45.12025452 C274.41485413 44.46025452 274.74485413 43.80025452 275.08485413 43.12025452 C277.45985413 41.93275452 277.45985413 41.93275452 280.08485413 41.12025452 C281.07485413 41.45025452 282.06485413 41.78025452 283.08485413 42.12025452 C282.06649475 42.8356842 281.04813538 43.55111389 279.99891663 44.28822327 C273.10747424 49.13760425 266.22906131 54.00123865 259.41297913 58.95619202 C252.24276842 64.16857923 245.01863065 69.29111682 237.70985413 74.30775452 C236.90692932 74.86068176 236.10400452 75.41360901 235.27674866 75.98329163 C234.52506409 76.49641907 233.77337952 77.00954651 232.99891663 77.53822327 C232.33843323 77.98963684 231.67794983 78.44105042 230.99745178 78.90614319 C229.08485413 80.12025452 229.08485413 80.12025452 225.08485413 82.12025452 C225.08485413 55.72025452 225.08485413 29.32025452 225.08485413 2.12025452 C194.98624983 2.13757149 164.88783063 2.17277131 134.78932308 2.24711014 C131.23101421 2.25587625 127.67270485 2.26442617 124.11439514 2.27284241 C123.05186072 2.275361 123.05186072 2.275361 121.96786096 2.27793048 C110.517951 2.30455612 99.06809111 2.31369237 87.61815337 2.31629594 C75.85798182 2.31936198 64.09795436 2.34138357 52.33784789 2.38077909 C45.73717329 2.40235297 39.13668925 2.41472606 32.5359745 2.40640831 C26.3167214 2.39884806 20.09796053 2.4147722 13.87879753 2.44831467 C11.60250422 2.456524 9.32616175 2.45632633 7.04987335 2.44685173 C-9.80759266 2.38366106 -21.69082452 3.75649786 -34.91514587 15.12025452 C-35.90514587 15.78025452 -36.89514587 16.44025452 -37.91514587 17.12025452 C-37.91514587 16.13025452 -37.91514587 15.14025452 -37.91514587 14.12025452 C-37.25514587 14.12025452 -36.59514587 14.12025452 -35.91514587 14.12025452 C-35.91514587 12.47025452 -35.91514587 10.82025452 -35.91514587 9.12025452 C-34.26514587 9.45025452 -32.61514587 9.78025452 -30.91514587 10.12025452 C-30.91514587 9.46025452 -30.91514587 8.80025452 -30.91514587 8.12025452 C-29.92514587 8.12025452 -28.93514587 8.12025452 -27.91514587 8.12025452 C-27.91514587 7.46025452 -27.91514587 6.80025452 -27.91514587 6.12025452 C-26.64675062 5.61410154 -25.37531486 5.11556353 -24.10264587 4.62025452 C-23.04110291 4.20259827 -23.04110291 4.20259827 -21.95811462 3.77650452 C-19.91514587 3.12025452 -19.91514587 3.12025452 -16.91514587 3.12025452 C-16.91514587 2.46025452 -16.91514587 1.80025452 -16.91514587 1.12025452 C-11.23659474 0.14931648 -5.75408446 -0.01842757 0 0 Z " fill="#368CB8" transform="translate(782.9151458740234,798.8797454833984)"/>
<path d="M0 0 C3.79303725 1.00193437 6.71536341 1.81024227 10 4 C10 4.99 10 5.98 10 7 C10.53625 7.2475 11.0725 7.495 11.625 7.75 C14 9 14 9 16.46032906 11.04568863 C20.94371645 14.02899108 25.79623862 13.55799841 31.00973511 13.51898193 C32.67738897 13.53023381 32.67738897 13.53023381 34.3787328 13.541713 C38.10537967 13.56201837 41.83141979 13.55388145 45.55810547 13.54589844 C48.2289299 13.5546319 50.89970487 13.56494159 53.57051086 13.57722473 C59.32119271 13.60052912 65.07174849 13.60928563 70.82247543 13.60811615 C79.13699374 13.6064464 87.45134405 13.6267868 95.76581754 13.65247145 C109.25597955 13.6935481 122.74611133 13.71686425 136.23632812 13.72900391 C149.33954779 13.74083336 162.44271054 13.76103194 175.54589844 13.79248047 C176.75774763 13.79538462 176.75774763 13.79538462 177.99407862 13.79834744 C182.04713847 13.80811207 186.10019789 13.81804117 190.15325713 13.82805204 C223.76881344 13.91086824 257.3843602 13.9648577 291 14 C291 13.34 291 12.68 291 12 C290.01 11.67 289.02 11.34 288 11 C288.33 10.34 288.66 9.68 289 9 C292.96 10.98 296.92 12.96 301 15 C301 15.33 301 15.66 301 16 C265.47482882 16.27505908 229.94984531 16.48631381 194.42382732 16.61278395 C190.22346778 16.62779126 186.02311033 16.64332324 181.82275391 16.65917969 C180.98658812 16.66232741 180.15042234 16.66547514 179.2889182 16.66871825 C165.77465995 16.72084167 152.26101833 16.815404 138.74712509 16.92583355 C124.866014 17.03831227 110.98522438 17.10475978 97.10367632 17.12906194 C88.54730565 17.14547473 79.99267819 17.19718086 71.43684459 17.2949976 C65.55847586 17.35875326 59.68099952 17.37752988 53.80231071 17.36201653 C50.41626885 17.35437636 47.03568242 17.37220904 43.64977837 17.4304657 C28.88889298 17.67186085 18.1221304 17.32587932 6.91991425 6.96773148 C5.93856262 5.9864698 4.96446849 4.99786072 4 4 C3.20543648 3.21284985 2.41087296 2.42569969 1.59223175 1.6146965 C1.06679527 1.08184666 0.5413588 0.54899681 0 0 Z " fill="#3989B3" transform="translate(666,986)"/>
<path d="M0 0 C1.32 0 2.64 0 4 0 C4 1.32 4 2.64 4 4 C-41.21 4.33 -86.42 4.66 -133 5 C-133 3.68 -133 2.36 -133 1 C-117.87377579 0.9765389 -102.74755242 0.95895639 -87.62131405 0.94818783 C-80.59641343 0.94305275 -73.57152418 0.93606381 -66.54663086 0.92456055 C-59.75796464 0.91344949 -52.9693102 0.90770319 -46.18063545 0.90512276 C-43.60011167 0.90328551 -41.01958848 0.89969806 -38.43906975 0.89426994 C-12.49064915 0.8418945 -12.49064915 0.8418945 0 2 C0 1.34 0 0.68 0 0 Z " fill="#D7CFE4" transform="translate(1344,1042)"/>
<path d="M0 0 C0.82916331 2.89154311 1.11826342 5.43814797 1.09765625 8.44213867 C1.09435303 9.31372116 1.0910498 10.18530365 1.08764648 11.08329773 C1.07934814 12.01873917 1.0710498 12.9541806 1.0625 13.91796875 C1.05871338 14.88978592 1.05492676 15.86160309 1.05102539 16.86286926 C1.03472047 21.01353147 1.00671138 25.16409452 0.97949219 29.31469727 C0.9612919 32.34911637 0.94926562 35.38351892 0.9375 38.41796875 C0.92920166 39.34328903 0.92090332 40.26860931 0.91235352 41.2219696 C0.89122061 46.89889294 1.27220765 52.36856346 2 58 C1.34 57.67 0.68 57.34 0 57 C-0.44332642 54.68195337 -0.7814034 52.34325909 -1.0625 50 C-1.22405132 45.67240322 -1.22405132 45.67240322 -3 42 C-3.12585564 39.6567969 -3.18865049 37.34473396 -3.203125 35 C-3.20882507 34.29029053 -3.21452515 33.58058105 -3.22039795 32.84936523 C-3.22986852 31.33953345 -3.23639006 29.82968081 -3.24023438 28.31982422 C-3.24984403 26.03705047 -3.28080468 23.75521468 -3.3125 21.47265625 C-3.36683828 13.80211296 -3.09062899 7.15724607 0 0 Z " fill="#C9ECF4" transform="translate(608,827)"/>
</svg>
